<svg viewBox="0 0 100 100" fill="none" xmlns="http://www.w3.org/2000/svg">
  <defs>
    <linearGradient id="nexoraBorder" x1="0%" y1="0%" x2="100%" y2="100%">
      <stop offset="0%" stop-color="#00F0FF" />
      <stop offset="40%" stop-color="#3B82F6" />
      <stop offset="80%" stop-color="#8B5CF6" />
      <stop offset="100%" stop-color="#EC4899" />
    </linearGradient>

    <radialGradient id="nexoraPlate" cx="50%" cy="25%" r="85%">
      <stop offset="0%" stop-color="#1E293B" />
      <stop offset="60%" stop-color="#0F172A" />
      <stop offset="100%" stop-color="#020617" />
    </radialGradient>

    <linearGradient id="nexoraPillarL" x1="0%" y1="0%" x2="0%" y2="100%">
      <stop offset="0%" stop-color="#00F0FF" />
      <stop offset="100%" stop-color="#2563EB" />
    </linearGradient>

    <linearGradient id="nexoraPillarR" x1="0%" y1="0%" x2="0%" y2="100%">
      <stop offset="0%" stop-color="#A855F7" />
      <stop offset="100%" stop-color="#EC4899" />
    </linearGradient>

    <linearGradient id="nexoraDiagRibbon" x1="0%" y1="0%" x2="100%" y2="100%">
      <stop offset="0%" stop-color="#00F0FF" />
      <stop offset="45%" stop-color="#3B82F6" />
      <stop offset="75%" stop-color="#8B5CF6" />
      <stop offset="100%" stop-color="#F43F5E" />
    </linearGradient>

    <filter id="sparkleGlow" x="-50%" y="-50%" width="200%" height="200%">
      <feGaussianBlur stdDeviation="2.5" result="blur" />
      <feComposite in="SourceGraphic" in2="blur" operator="over" />
    </filter>
  </defs>

  <rect
    x="4"
    y="4"
    width="92"
    height="92"
    rx="24"
    fill="url(#nexoraPlate)"
    stroke="url(#nexoraBorder)"
    stroke-width="3.2"
  />

  <rect
    x="7.5"
    y="7.5"
    width="85"
    height="85"
    rx="20.5"
    fill="none"
    stroke="rgba(255, 255, 255, 0.08)"
    stroke-width="1"
  />

  <rect
    x="24"
    y="24"
    width="12"
    height="52"
    rx="6"
    fill="url(#nexoraPillarL)"
  />

  <rect
    x="64"
    y="24"
    width="12"
    height="52"
    rx="6"
    fill="url(#nexoraPillarR)"
  />

  <path
    d="M 28 26 C 25.5 28.5 25.5 32.5 28.5 35.5 L 65.5 73.5 C 68 76 72 76 74.5 73.5 C 77 71 77 67 74.5 64.5 L 37.5 26.5 C 34.5 23.5 30.5 23.5 28 26 Z"
    fill="url(#nexoraDiagRibbon)"
  />

  <path
    d="M 50 38 Q 50 50 62 50 Q 50 50 50 62 Q 50 50 38 50 Q 50 50 50 38 Z"
    fill="#FFFFFF"
    filter="url(#sparkleGlow)"
  />
  <circle cx="50" cy="50" r="2.5" fill="#00F0FF" />
</svg>
